<mxfile host="app.diagrams.net" modified="2023-07-09T09:35:01.109Z" agent="Mozilla/5.0 (Windows NT 10.0; Win64; x64) AppleWebKit/537.36 (KHTML, like Gecko) Chrome/114.0.0.0 Safari/537.36" etag="_O6YIVq5JiWme5yI3sCx" version="21.6.1" type="github">
  <diagram name="第 1 页" id="STJgJs8Hy84j43mIQOGK">
    <mxGraphModel dx="786" dy="845" grid="1" gridSize="10" guides="1" tooltips="1" connect="1" arrows="1" fold="1" page="1" pageScale="1" pageWidth="827" pageHeight="1169" math="0" shadow="0">
      <root>
        <mxCell id="0" />
        <mxCell id="1" parent="0" />
        <mxCell id="h9Y7QXtQHMgZYLagcVGw-30" value="demo" style="whiteSpace=wrap;html=1;aspect=fixed;" vertex="1" parent="1">
          <mxGeometry x="240" y="10" width="450" height="450" as="geometry" />
        </mxCell>
        <mxCell id="h9Y7QXtQHMgZYLagcVGw-1" value="区块系统" style="rounded=0;whiteSpace=wrap;html=1;" vertex="1" parent="1">
          <mxGeometry x="280" y="60" width="120" height="60" as="geometry" />
        </mxCell>
        <mxCell id="h9Y7QXtQHMgZYLagcVGw-6" value="" style="edgeStyle=orthogonalEdgeStyle;rounded=0;orthogonalLoop=1;jettySize=auto;html=1;" edge="1" parent="1" source="h9Y7QXtQHMgZYLagcVGw-2" target="h9Y7QXtQHMgZYLagcVGw-5">
          <mxGeometry relative="1" as="geometry" />
        </mxCell>
        <mxCell id="h9Y7QXtQHMgZYLagcVGw-8" value="" style="edgeStyle=orthogonalEdgeStyle;rounded=0;orthogonalLoop=1;jettySize=auto;html=1;" edge="1" parent="1" source="h9Y7QXtQHMgZYLagcVGw-2" target="h9Y7QXtQHMgZYLagcVGw-7">
          <mxGeometry relative="1" as="geometry" />
        </mxCell>
        <mxCell id="h9Y7QXtQHMgZYLagcVGw-2" value="划分道路&lt;br&gt;生成可以建造的区域" style="rounded=0;whiteSpace=wrap;html=1;" vertex="1" parent="1">
          <mxGeometry x="280" y="210" width="120" height="60" as="geometry" />
        </mxCell>
        <mxCell id="h9Y7QXtQHMgZYLagcVGw-4" value="" style="endArrow=classic;html=1;rounded=0;exitX=0.5;exitY=1;exitDx=0;exitDy=0;entryX=0.5;entryY=0;entryDx=0;entryDy=0;" edge="1" parent="1" source="h9Y7QXtQHMgZYLagcVGw-1" target="h9Y7QXtQHMgZYLagcVGw-2">
          <mxGeometry width="50" height="50" relative="1" as="geometry">
            <mxPoint x="380" y="380" as="sourcePoint" />
            <mxPoint x="430" y="330" as="targetPoint" />
          </mxGeometry>
        </mxCell>
        <mxCell id="h9Y7QXtQHMgZYLagcVGw-11" value="" style="edgeStyle=orthogonalEdgeStyle;rounded=0;orthogonalLoop=1;jettySize=auto;html=1;" edge="1" parent="1" source="h9Y7QXtQHMgZYLagcVGw-5" target="h9Y7QXtQHMgZYLagcVGw-10">
          <mxGeometry relative="1" as="geometry" />
        </mxCell>
        <mxCell id="h9Y7QXtQHMgZYLagcVGw-21" value="" style="edgeStyle=orthogonalEdgeStyle;rounded=0;orthogonalLoop=1;jettySize=auto;html=1;" edge="1" parent="1" source="h9Y7QXtQHMgZYLagcVGw-5" target="h9Y7QXtQHMgZYLagcVGw-20">
          <mxGeometry relative="1" as="geometry" />
        </mxCell>
        <mxCell id="h9Y7QXtQHMgZYLagcVGw-5" value="指定区域后自动生成建筑" style="whiteSpace=wrap;html=1;rounded=0;" vertex="1" parent="1">
          <mxGeometry x="280" y="350" width="120" height="60" as="geometry" />
        </mxCell>
        <mxCell id="h9Y7QXtQHMgZYLagcVGw-7" value="手动在可建造区放置建筑" style="whiteSpace=wrap;html=1;rounded=0;" vertex="1" parent="1">
          <mxGeometry x="510" y="350" width="120" height="60" as="geometry" />
        </mxCell>
        <mxCell id="h9Y7QXtQHMgZYLagcVGw-13" value="" style="edgeStyle=orthogonalEdgeStyle;rounded=0;orthogonalLoop=1;jettySize=auto;html=1;" edge="1" parent="1" source="h9Y7QXtQHMgZYLagcVGw-10" target="h9Y7QXtQHMgZYLagcVGw-12">
          <mxGeometry relative="1" as="geometry" />
        </mxCell>
        <mxCell id="h9Y7QXtQHMgZYLagcVGw-10" value="生成人口" style="whiteSpace=wrap;html=1;rounded=0;" vertex="1" parent="1">
          <mxGeometry x="280" y="490" width="120" height="60" as="geometry" />
        </mxCell>
        <mxCell id="h9Y7QXtQHMgZYLagcVGw-19" value="" style="edgeStyle=orthogonalEdgeStyle;rounded=0;orthogonalLoop=1;jettySize=auto;html=1;" edge="1" parent="1" source="h9Y7QXtQHMgZYLagcVGw-12" target="h9Y7QXtQHMgZYLagcVGw-18">
          <mxGeometry relative="1" as="geometry" />
        </mxCell>
        <mxCell id="h9Y7QXtQHMgZYLagcVGw-27" value="" style="edgeStyle=orthogonalEdgeStyle;rounded=0;orthogonalLoop=1;jettySize=auto;html=1;" edge="1" parent="1" source="h9Y7QXtQHMgZYLagcVGw-12" target="h9Y7QXtQHMgZYLagcVGw-26">
          <mxGeometry relative="1" as="geometry" />
        </mxCell>
        <mxCell id="h9Y7QXtQHMgZYLagcVGw-12" value="住民产生需求" style="whiteSpace=wrap;html=1;rounded=0;" vertex="1" parent="1">
          <mxGeometry x="280" y="630" width="120" height="60" as="geometry" />
        </mxCell>
        <mxCell id="h9Y7QXtQHMgZYLagcVGw-16" value="资源系统" style="rounded=0;whiteSpace=wrap;html=1;" vertex="1" parent="1">
          <mxGeometry x="80" y="60" width="120" height="60" as="geometry" />
        </mxCell>
        <mxCell id="h9Y7QXtQHMgZYLagcVGw-18" value="物资需求" style="whiteSpace=wrap;html=1;rounded=0;" vertex="1" parent="1">
          <mxGeometry x="80" y="630" width="120" height="60" as="geometry" />
        </mxCell>
        <mxCell id="h9Y7QXtQHMgZYLagcVGw-20" value="建造资源需求" style="whiteSpace=wrap;html=1;rounded=0;" vertex="1" parent="1">
          <mxGeometry x="80" y="350" width="120" height="60" as="geometry" />
        </mxCell>
        <mxCell id="h9Y7QXtQHMgZYLagcVGw-22" value="" style="endArrow=classic;startArrow=classic;html=1;rounded=0;exitX=1;exitY=0.5;exitDx=0;exitDy=0;entryX=0;entryY=0.5;entryDx=0;entryDy=0;" edge="1" parent="1" source="h9Y7QXtQHMgZYLagcVGw-20" target="h9Y7QXtQHMgZYLagcVGw-7">
          <mxGeometry width="50" height="50" relative="1" as="geometry">
            <mxPoint x="370" y="360" as="sourcePoint" />
            <mxPoint x="420" y="310" as="targetPoint" />
            <Array as="points">
              <mxPoint x="250" y="380" />
              <mxPoint x="250" y="300" />
              <mxPoint x="360" y="300" />
              <mxPoint x="470" y="300" />
              <mxPoint x="470" y="380" />
            </Array>
          </mxGeometry>
        </mxCell>
        <mxCell id="h9Y7QXtQHMgZYLagcVGw-23" value="" style="endArrow=classic;html=1;rounded=0;exitX=0.5;exitY=1;exitDx=0;exitDy=0;entryX=0.5;entryY=0;entryDx=0;entryDy=0;" edge="1" parent="1" source="h9Y7QXtQHMgZYLagcVGw-16" target="h9Y7QXtQHMgZYLagcVGw-20">
          <mxGeometry width="50" height="50" relative="1" as="geometry">
            <mxPoint x="370" y="360" as="sourcePoint" />
            <mxPoint x="420" y="310" as="targetPoint" />
          </mxGeometry>
        </mxCell>
        <mxCell id="h9Y7QXtQHMgZYLagcVGw-24" value="" style="endArrow=classic;html=1;rounded=0;exitX=0.5;exitY=1;exitDx=0;exitDy=0;entryX=0.5;entryY=0;entryDx=0;entryDy=0;" edge="1" parent="1" source="h9Y7QXtQHMgZYLagcVGw-20" target="h9Y7QXtQHMgZYLagcVGw-18">
          <mxGeometry width="50" height="50" relative="1" as="geometry">
            <mxPoint x="370" y="560" as="sourcePoint" />
            <mxPoint x="420" y="510" as="targetPoint" />
          </mxGeometry>
        </mxCell>
        <mxCell id="h9Y7QXtQHMgZYLagcVGw-26" value="精神需求&lt;br&gt;服务需求" style="whiteSpace=wrap;html=1;rounded=0;" vertex="1" parent="1">
          <mxGeometry x="510" y="630" width="120" height="60" as="geometry" />
        </mxCell>
        <mxCell id="h9Y7QXtQHMgZYLagcVGw-28" value="" style="endArrow=classic;html=1;rounded=0;exitX=1;exitY=0.5;exitDx=0;exitDy=0;entryX=0.5;entryY=0;entryDx=0;entryDy=0;" edge="1" parent="1" source="h9Y7QXtQHMgZYLagcVGw-5" target="h9Y7QXtQHMgZYLagcVGw-26">
          <mxGeometry width="50" height="50" relative="1" as="geometry">
            <mxPoint x="400" y="660" as="sourcePoint" />
            <mxPoint x="450" y="610" as="targetPoint" />
            <Array as="points">
              <mxPoint x="430" y="380" />
              <mxPoint x="430" y="540" />
              <mxPoint x="570" y="540" />
            </Array>
          </mxGeometry>
        </mxCell>
        <mxCell id="h9Y7QXtQHMgZYLagcVGw-29" value="" style="endArrow=classic;html=1;rounded=0;exitX=0.5;exitY=1;exitDx=0;exitDy=0;" edge="1" parent="1" source="h9Y7QXtQHMgZYLagcVGw-7">
          <mxGeometry width="50" height="50" relative="1" as="geometry">
            <mxPoint x="400" y="560" as="sourcePoint" />
            <mxPoint x="570" y="630" as="targetPoint" />
          </mxGeometry>
        </mxCell>
        <mxCell id="h9Y7QXtQHMgZYLagcVGw-33" value="" style="edgeStyle=orthogonalEdgeStyle;rounded=0;orthogonalLoop=1;jettySize=auto;html=1;" edge="1" parent="1" source="h9Y7QXtQHMgZYLagcVGw-31" target="h9Y7QXtQHMgZYLagcVGw-32">
          <mxGeometry relative="1" as="geometry" />
        </mxCell>
        <mxCell id="h9Y7QXtQHMgZYLagcVGw-31" value="选中点A" style="rounded=0;whiteSpace=wrap;html=1;" vertex="1" parent="1">
          <mxGeometry x="280" y="770" width="120" height="60" as="geometry" />
        </mxCell>
        <mxCell id="h9Y7QXtQHMgZYLagcVGw-35" value="" style="edgeStyle=orthogonalEdgeStyle;rounded=0;orthogonalLoop=1;jettySize=auto;html=1;" edge="1" parent="1" source="h9Y7QXtQHMgZYLagcVGw-32" target="h9Y7QXtQHMgZYLagcVGw-34">
          <mxGeometry relative="1" as="geometry" />
        </mxCell>
        <mxCell id="h9Y7QXtQHMgZYLagcVGw-32" value="选中点B" style="whiteSpace=wrap;html=1;rounded=0;" vertex="1" parent="1">
          <mxGeometry x="280" y="900" width="120" height="60" as="geometry" />
        </mxCell>
        <mxCell id="h9Y7QXtQHMgZYLagcVGw-34" value="算出中心坐标，算出旋转角。&lt;br&gt;生成一个staticmesh并指定拉伸长度" style="whiteSpace=wrap;html=1;rounded=0;" vertex="1" parent="1">
          <mxGeometry x="280" y="1040" width="120" height="60" as="geometry" />
        </mxCell>
        <mxCell id="h9Y7QXtQHMgZYLagcVGw-36" value="" style="edgeStyle=orthogonalEdgeStyle;rounded=0;orthogonalLoop=1;jettySize=auto;html=1;" edge="1" parent="1" source="h9Y7QXtQHMgZYLagcVGw-37" target="h9Y7QXtQHMgZYLagcVGw-38">
          <mxGeometry relative="1" as="geometry" />
        </mxCell>
        <mxCell id="h9Y7QXtQHMgZYLagcVGw-37" value="选中点A" style="rounded=0;whiteSpace=wrap;html=1;" vertex="1" parent="1">
          <mxGeometry x="480" y="770" width="120" height="60" as="geometry" />
        </mxCell>
        <mxCell id="h9Y7QXtQHMgZYLagcVGw-38" value="选中点B" style="whiteSpace=wrap;html=1;rounded=0;" vertex="1" parent="1">
          <mxGeometry x="480" y="900" width="120" height="60" as="geometry" />
        </mxCell>
        <mxCell id="h9Y7QXtQHMgZYLagcVGw-40" value="标准道路模块" style="rounded=0;whiteSpace=wrap;html=1;" vertex="1" parent="1">
          <mxGeometry x="660" y="970" width="120" height="60" as="geometry" />
        </mxCell>
        <mxCell id="h9Y7QXtQHMgZYLagcVGw-41" value="所有道路长度为5的倍数" style="rounded=1;whiteSpace=wrap;html=1;" vertex="1" parent="1">
          <mxGeometry x="590" y="710" width="120" height="60" as="geometry" />
        </mxCell>
        <mxCell id="h9Y7QXtQHMgZYLagcVGw-42" value="平铺标准道路模块" style="rounded=0;whiteSpace=wrap;html=1;" vertex="1" parent="1">
          <mxGeometry x="480" y="1040" width="120" height="60" as="geometry" />
        </mxCell>
        <mxCell id="h9Y7QXtQHMgZYLagcVGw-43" value="" style="endArrow=classic;html=1;rounded=0;exitX=0.5;exitY=1;exitDx=0;exitDy=0;entryX=0.5;entryY=0;entryDx=0;entryDy=0;" edge="1" parent="1" source="h9Y7QXtQHMgZYLagcVGw-38" target="h9Y7QXtQHMgZYLagcVGw-42">
          <mxGeometry width="50" height="50" relative="1" as="geometry">
            <mxPoint x="570" y="1010" as="sourcePoint" />
            <mxPoint x="620" y="960" as="targetPoint" />
          </mxGeometry>
        </mxCell>
        <mxCell id="h9Y7QXtQHMgZYLagcVGw-44" value="" style="endArrow=classic;html=1;rounded=0;exitX=0;exitY=0.5;exitDx=0;exitDy=0;entryX=1;entryY=0.5;entryDx=0;entryDy=0;" edge="1" parent="1" source="h9Y7QXtQHMgZYLagcVGw-40" target="h9Y7QXtQHMgZYLagcVGw-42">
          <mxGeometry width="50" height="50" relative="1" as="geometry">
            <mxPoint x="400" y="1110" as="sourcePoint" />
            <mxPoint x="540" y="1040" as="targetPoint" />
            <Array as="points">
              <mxPoint x="640" y="1000" />
              <mxPoint x="640" y="1070" />
            </Array>
          </mxGeometry>
        </mxCell>
      </root>
    </mxGraphModel>
  </diagram>
</mxfile>
